<?xml version="1.0" encoding="UTF-8"?>
<svg version="1.1" xmlns="http://www.w3.org/2000/svg" width="134" height="205">
<path d="M0 0 C44.22 0 88.44 0 134 0 C134 67.65 134 135.3 134 205 C89.78 205 45.56 205 0 205 C0 137.35 0 69.7 0 0 Z " fill="#FEFEFE" transform="translate(0,0)"/>
<path d="M0 0 C2.85475306 -0.08156437 5.70713565 -0.14076372 8.5625 -0.1875 C9.36236328 -0.21263672 10.16222656 -0.23777344 10.98632812 -0.26367188 C23.37205841 -0.41533388 29.72531922 6.85508034 38.12464905 15.02046204 C41.64522378 18.46965013 45.1385211 21.94608622 48.62890625 25.42578125 C49.57311086 26.36574479 49.57311086 26.36574479 50.5363903 27.32469749 C53.85351166 30.62696169 57.16785389 33.93198387 60.47973633 37.23950195 C63.89604034 40.65027349 67.32156351 44.05163123 70.7492075 47.45100117 C73.39385701 50.07706571 76.03181223 52.70977661 78.66795158 55.34438133 C79.9289748 56.60237911 81.19249728 57.8578768 82.45855904 59.1108036 C84.21982201 60.85505851 85.97142897 62.60847815 87.72094727 64.36450195 C88.24398437 64.87832428 88.76702148 65.39214661 89.3059082 65.92153931 C91.85840831 68.50396981 93.62648887 70.33339562 94 74 C92.05591579 76.45559505 90.14030646 78.55241551 87.92236328 80.74047852 C86.93477272 81.74362091 86.93477272 81.74362091 85.92723083 82.76702881 C83.73754122 84.98391539 81.52983571 87.18179896 79.3203125 89.37890625 C77.79278481 90.91234026 76.26592793 92.44644276 74.73971558 93.98118591 C71.5313358 97.20147121 68.31379092 100.41224581 65.08984375 103.61694336 C60.96760706 107.71637502 56.87059036 111.83998755 52.78044319 115.97140598 C49.62886082 119.14863087 46.46324834 122.3115796 43.29339218 125.47056389 C41.77785797 126.98461457 40.26688097 128.50324163 38.76065445 130.0265522 C36.64513433 132.1621391 34.51119326 134.27750182 32.37158203 136.38891602 C31.75716751 137.01704697 31.14275299 137.64517792 30.50971985 138.29234314 C25.0525023 143.60749357 19.24796817 146.01191944 11.62109375 146.29296875 C10.22625521 146.27350589 8.83154343 146.23845379 7.4375 146.1875 C6.71498047 146.17396484 5.99246094 146.16042969 5.24804688 146.14648438 C3.49836188 146.11172242 1.74907072 146.05794467 0 146 C0.07000271 125.24419641 10.81922124 109.38592565 25 95 C29.80012594 90.28245687 35.16352769 86.30990491 40.5625 82.3125 C41.18785645 81.84851807 41.81321289 81.38453613 42.45751953 80.90649414 C46.49717976 77.96031168 50.6177628 75.40825648 55 73 C54.04480469 72.38253906 53.08960938 71.76507813 52.10546875 71.12890625 C29.90512362 56.6477875 7.26903353 38.15934334 0.625 11.125 C-0.13985263 7.42071372 -0.04544812 3.77219401 0 0 Z " fill="#02BF02" transform="translate(20,37)"/>
</svg>
