<?xml version="1.0" encoding="UTF-8"?>
<svg version="1.1" xmlns="http://www.w3.org/2000/svg" width="36" height="43">
<path d="M0 0 C11.88 0 23.76 0 36 0 C36 14.19 36 28.38 36 43 C24.12 43 12.24 43 0 43 C0 28.81 0 14.62 0 0 Z " fill="#EEEFEF" transform="translate(0,0)"/>
<path d="M0 0 C0.66 0 1.32 0 2 0 C2 3.63 2 7.26 2 11 C2.66 11 3.32 11 4 11 C4 8.03 4 5.06 4 2 C4.99 1.67 5.98 1.34 7 1 C7 3.97 7 6.94 7 10 C8.98 9.67 10.96 9.34 13 9 C12.67 9.99 12.34 10.98 12 12 C10.35 12 8.7 12 7 12 C7 12.99 7 13.98 7 15 C8.98 14.67 10.96 14.34 13 14 C12.67 14.99 12.34 15.98 12 17 C8.04 17.495 8.04 17.495 4 18 C4 16.68 4 15.36 4 14 C3.34 14 2.68 14 2 14 C1.8453125 15.175625 1.8453125 15.175625 1.6875 16.375 C1 19 1 19 -2 21 C-5.1875 21.125 -5.1875 21.125 -8 21 C-8 20.34 -8 19.68 -8 19 C-4.535 18.505 -4.535 18.505 -1 18 C-1 17.01 -1 16.02 -1 15 C-2.98 15 -4.96 15 -7 15 C-6.67 14.01 -6.34 13.02 -6 12 C-4.35 12 -2.7 12 -1 12 C-1.01160156 11.21753906 -1.02320313 10.43507813 -1.03515625 9.62890625 C-1.04417969 8.61699219 -1.05320312 7.60507812 -1.0625 6.5625 C-1.07410156 5.55316406 -1.08570313 4.54382813 -1.09765625 3.50390625 C-1 1 -1 1 0 0 Z " fill="#272E47" transform="translate(15,9)"/>
<path d="M0 0 C0.33 1.32 0.66 2.64 1 4 C-1.55068845 6.35448165 -2.71017358 6.98327924 -6.25 7.1875 C-7.1575 7.125625 -8.065 7.06375 -9 7 C-9 6.34 -9 5.68 -9 5 C-6.36 4.67 -3.72 4.34 -1 4 C-0.67 2.68 -0.34 1.36 0 0 Z " fill="#142A4E" transform="translate(16,23)"/>
<path d="M0 0 C0 0.99 0 1.98 0 3 C-2.64 3.33 -5.28 3.66 -8 4 C-8 3.34 -8 2.68 -8 2 C-5.09399739 0.74335022 -3.20395416 0 0 0 Z " fill="#21314D" transform="translate(28,28)"/>
<path d="M0 0 C2.16874252 0.50603992 3.99967627 0.99983813 6 2 C5.67 3.32 5.34 4.64 5 6 C5 5.01 5 4.02 5 3 C3.02 3 1.04 3 -1 3 C-0.67 2.01 -0.34 1.02 0 0 Z " fill="#4B4249" transform="translate(9,21)"/>
</svg>
