<svg xmlns="http://www.w3.org/2000/svg" width="42" height="42" viewBox="0 0 42 42" fill="none">
<path d="M13.8918 7.96615C13.8918 7.31125 14.4223 6.78082 15.0772 6.78082H26.9208C27.5757 6.78082 28.1062 7.31125 28.1062 7.96615V11.5325H30.4768V7.96615C30.4768 6.0022 28.8848 4.41016 26.9208 4.41016H15.0772C13.1132 4.41016 11.5212 6.0022 11.5212 7.96615V11.5325H13.8918V7.96615ZM4.40918 13.9647V32.8359C4.40918 35.457 6.54204 37.5898 9.1631 37.5898H32.8357C35.4567 37.5898 37.5896 35.457 37.5896 32.8359V13.9647H4.40918ZM35.2789 32.8359C35.2789 34.1835 34.1825 35.2799 32.8349 35.2799H9.1631C7.81553 35.2799 6.71909 34.1835 6.71909 32.8359V21.5641C8.81195 21.8242 10.9404 22.788 13.0614 24.4378C15.7669 26.5433 17.7538 29.211 18.9443 31.0779C19.394 31.7832 20.1615 32.204 20.9994 32.204C21.8373 32.204 22.6048 31.7832 23.0544 31.0779C24.245 29.211 26.2319 26.5433 28.9374 24.4378C31.0584 22.7872 33.1868 21.8242 35.2797 21.5641V32.8359H35.2789ZM35.2789 19.2401C32.6742 19.4987 30.0686 20.6307 27.5187 22.6154C24.5524 24.9231 22.3944 27.816 21.1061 29.837C21.0957 29.8526 21.069 29.8948 20.9994 29.8948C20.9297 29.8948 20.9023 29.8533 20.8927 29.837C19.6044 27.816 17.4463 24.9231 14.4801 22.6154C11.9294 20.6307 9.32386 19.4994 6.71909 19.2401V16.2753H35.2789V19.2401Z" fill="white"/>
</svg>