<svg xmlns="http://www.w3.org/2000/svg" width="29" height="28" viewBox="0 0 29 28" fill="none">
  <path d="M24.125 8.75H20.625V5.25C20.625 4.78587 20.4406 4.34075 20.1124 4.01256C19.7842 3.68437 19.3391 3.5 18.875 3.5H4.875C4.41087 3.5 3.96575 3.68437 3.63756 4.01256C3.30937 4.34075 3.125 4.78587 3.125 5.25V19.25C3.12551 19.4146 3.17245 19.5758 3.26043 19.7149C3.34841 19.854 3.47385 19.9655 3.62234 20.0366C3.77084 20.1076 3.93637 20.1353 4.09991 20.1165C4.26345 20.0977 4.41837 20.0332 4.54688 19.9303L8.375 16.8438V20.125C8.375 20.5891 8.55937 21.0342 8.88756 21.3624C9.21575 21.6906 9.66087 21.875 10.125 21.875H20.3614L24.4531 25.1803C24.608 25.3055 24.8009 25.3742 25 25.375C25.2321 25.375 25.4546 25.2828 25.6187 25.1187C25.7828 24.9546 25.875 24.7321 25.875 24.5V10.5C25.875 10.0359 25.6906 9.59075 25.3624 9.26256C25.0342 8.93437 24.5891 8.75 24.125 8.75ZM7.77891 15.0697L4.875 17.418V5.25H18.875V14.875H8.32906C8.1288 14.875 7.93461 14.9437 7.77891 15.0697ZM24.125 22.668L21.2211 20.3197C21.0663 20.1945 20.8734 20.1258 20.6742 20.125H10.125V16.625H18.875C19.3391 16.625 19.7842 16.4406 20.1124 16.1124C20.4406 15.7842 20.625 15.3391 20.625 14.875V10.5H24.125V22.668Z" fill="white"/>
</svg>