<svg width="24" height="25" viewBox="0 0 24 25" fill="none" xmlns="http://www.w3.org/2000/svg">
<g clip-path="url(#clip0_222_3816)">
<path d="M22.2234 0.985107H1.77187C0.792187 0.985107 0 1.75855 0 2.71479V23.2507C0 24.207 0.792187 24.9851 1.77187 24.9851H22.2234C23.2031 24.9851 24 24.207 24 23.2554V2.71479C24 1.75855 23.2031 0.985107 22.2234 0.985107ZM7.12031 21.4367H3.55781V9.98042H7.12031V21.4367ZM5.33906 8.41948C4.19531 8.41948 3.27188 7.49604 3.27188 6.35698C3.27188 5.21792 4.19531 4.29448 5.33906 4.29448C6.47813 4.29448 7.40156 5.21792 7.40156 6.35698C7.40156 7.49136 6.47813 8.41948 5.33906 8.41948ZM20.4516 21.4367H16.8937V15.8679C16.8937 14.5414 16.8703 12.8304 15.0422 12.8304C13.1906 12.8304 12.9094 14.2789 12.9094 15.7742V21.4367H9.35625V9.98042H12.7687V11.546H12.8156C13.2891 10.646 14.4516 9.69448 16.1813 9.69448C19.7859 9.69448 20.4516 12.0664 20.4516 15.1507V21.4367Z" fill="#00004E"/>
</g>
<defs>
<clipPath id="clip0_222_3816">
<rect width="24" height="24" fill="white" transform="translate(0 0.985107)"/>
</clipPath>
</defs>
</svg>
