<svg width="24" height="25" viewBox="0 0 24 25" fill="none" xmlns="http://www.w3.org/2000/svg">
<path d="M23.7609 8.18516C23.7609 8.18516 23.5266 6.53047 22.8047 5.80391C21.8906 4.84766 20.8688 4.84297 20.4 4.78672C17.0438 4.54297 12.0047 4.54297 12.0047 4.54297H11.9953C11.9953 4.54297 6.95625 4.54297 3.6 4.78672C3.13125 4.84297 2.10938 4.84766 1.19531 5.80391C0.473438 6.53047 0.24375 8.18516 0.24375 8.18516C0.24375 8.18516 0 10.1305 0 12.0711V13.8898C0 15.8305 0.239062 17.7758 0.239062 17.7758C0.239062 17.7758 0.473437 19.4305 1.19062 20.157C2.10469 21.1133 3.30469 21.0805 3.83906 21.1836C5.76094 21.3664 12 21.4227 12 21.4227C12 21.4227 17.0438 21.4133 20.4 21.1742C20.8688 21.118 21.8906 21.1133 22.8047 20.157C23.5266 19.4305 23.7609 17.7758 23.7609 17.7758C23.7609 17.7758 24 15.8352 24 13.8898V12.0711C24 10.1305 23.7609 8.18516 23.7609 8.18516ZM9.52031 16.0977V9.35234L16.0031 12.7367L9.52031 16.0977Z" fill="#00004E"/>
</svg>
