<svg xmlns="http://www.w3.org/2000/svg" width="28" height="28" viewBox="0 0 28 28" fill="none">
    <path d="M14 19.25C15.3919 19.2486 16.7265 18.695 17.7107 17.7107C18.695 16.7265 19.2486 15.3919 19.25 14V7C19.25 5.60761 18.6969 4.27226 17.7123 3.28769C16.7277 2.30312 15.3924 1.75 14 1.75C12.6076 1.75 11.2723 2.30312 10.2877 3.28769C9.30312 4.27226 8.75 5.60761 8.75 7V14C8.75145 15.3919 9.30504 16.7265 10.2893 17.7107C11.2735 18.695 12.6081 19.2486 14 19.25ZM10.5 7C10.5 6.07174 10.8687 5.1815 11.5251 4.52513C12.1815 3.86875 13.0717 3.5 14 3.5C14.9283 3.5 15.8185 3.86875 16.4749 4.52513C17.1313 5.1815 17.5 6.07174 17.5 7V14C17.5 14.9283 17.1313 15.8185 16.4749 16.4749C15.8185 17.1313 14.9283 17.5 14 17.5C13.0717 17.5 12.1815 17.1313 11.5251 16.4749C10.8687 15.8185 10.5 14.9283 10.5 14V7ZM14.875 22.7063V25.375C14.875 25.6071 14.7828 25.8296 14.6187 25.9937C14.4546 26.1578 14.2321 26.25 14 26.25C13.7679 26.25 13.5454 26.1578 13.3813 25.9937C13.2172 25.8296 13.125 25.6071 13.125 25.375V22.7063C10.9677 22.4867 8.96849 21.4751 7.51389 19.8669C6.05929 18.2588 5.25266 16.1684 5.25 14C5.25 13.7679 5.34219 13.5454 5.50628 13.3813C5.67038 13.2172 5.89294 13.125 6.125 13.125C6.35706 13.125 6.57962 13.2172 6.74372 13.3813C6.90781 13.5454 7 13.7679 7 14C7 15.8565 7.7375 17.637 9.05025 18.9497C10.363 20.2625 12.1435 21 14 21C15.8565 21 17.637 20.2625 18.9497 18.9497C20.2625 17.637 21 15.8565 21 14C21 13.7679 21.0922 13.5454 21.2563 13.3813C21.4204 13.2172 21.6429 13.125 21.875 13.125C22.1071 13.125 22.3296 13.2172 22.4937 13.3813C22.6578 13.5454 22.75 13.7679 22.75 14C22.7473 16.1684 21.9407 18.2588 20.4861 19.8669C19.0315 21.4751 17.0323 22.4867 14.875 22.7063Z" fill="#00004E"/>
</svg>