<svg xmlns="http://www.w3.org/2000/svg" width="30" height="34" viewBox="0 0 30 34" fill="none">
<path d="M29.1744 2.61781C29.1744 1.34284 28.1387 0.304932 26.8652 0.304932H3.13339C1.8599 0.304932 0.824219 1.34284 0.824219 2.61781V17.0589C0.824219 21.5513 3.04968 25.7192 6.7768 28.2069L14.9993 33.695L23.2218 28.2069C26.9489 25.7192 29.1744 21.552 29.1744 17.0589V12.1412H28.0194C27.3816 12.1412 26.8645 12.6583 26.8645 13.2962V17.0589C26.8645 20.7786 25.0235 24.2286 21.9387 26.2874L14.9993 30.9191L8.05993 26.2874C4.97584 24.2286 3.13413 20.7793 3.13413 17.0589V2.61336H14.9993L26.8645 2.61781V5.35963L14.9245 17.2996L11.7552 14.1303C11.304 13.6792 10.5728 13.6792 10.1217 14.1303L9.30527 14.9467L14.9245 20.566L29.1744 6.31604V2.61781Z" fill="white"/>
</svg>